<mxfile host="app.diagrams.net" modified="2020-07-06T12:26:20.805Z" agent="5.0 (Windows NT 10.0; Win64; x64) AppleWebKit/537.36 (KHTML, like Gecko) Chrome/83.0.4103.97 Safari/537.36" etag="LQD5_dT6DXPFBPqFNGh4" version="13.3.7" type="github">
  <diagram id="sC6lKt8v7rI3tpovk_EK" name="Page-1">
    <mxGraphModel dx="1900" dy="990" grid="1" gridSize="10" guides="1" tooltips="1" connect="1" arrows="1" fold="1" page="1" pageScale="1" pageWidth="1654" pageHeight="1169" math="0" shadow="0">
      <root>
        <mxCell id="0" />
        <mxCell id="1" parent="0" />
        <mxCell id="EWkVJWGxlFTpa1lQiUUY-5" style="edgeStyle=orthogonalEdgeStyle;rounded=0;orthogonalLoop=1;jettySize=auto;html=1;exitX=0.5;exitY=1;exitDx=0;exitDy=0;entryX=0.5;entryY=0;entryDx=0;entryDy=0;" parent="1" source="EWkVJWGxlFTpa1lQiUUY-2" target="EWkVJWGxlFTpa1lQiUUY-3" edge="1">
          <mxGeometry relative="1" as="geometry" />
        </mxCell>
        <mxCell id="EWkVJWGxlFTpa1lQiUUY-7" style="edgeStyle=orthogonalEdgeStyle;rounded=0;orthogonalLoop=1;jettySize=auto;html=1;exitX=0.5;exitY=1;exitDx=0;exitDy=0;entryX=0.5;entryY=0;entryDx=0;entryDy=0;" parent="1" source="EWkVJWGxlFTpa1lQiUUY-2" target="EWkVJWGxlFTpa1lQiUUY-6" edge="1">
          <mxGeometry relative="1" as="geometry" />
        </mxCell>
        <mxCell id="EWkVJWGxlFTpa1lQiUUY-9" style="edgeStyle=orthogonalEdgeStyle;rounded=0;orthogonalLoop=1;jettySize=auto;html=1;exitX=0.5;exitY=1;exitDx=0;exitDy=0;entryX=0.5;entryY=0;entryDx=0;entryDy=0;" parent="1" source="EWkVJWGxlFTpa1lQiUUY-2" target="EWkVJWGxlFTpa1lQiUUY-8" edge="1">
          <mxGeometry relative="1" as="geometry" />
        </mxCell>
        <mxCell id="EWkVJWGxlFTpa1lQiUUY-11" style="edgeStyle=orthogonalEdgeStyle;rounded=0;orthogonalLoop=1;jettySize=auto;html=1;exitX=0.5;exitY=1;exitDx=0;exitDy=0;entryX=0.5;entryY=0;entryDx=0;entryDy=0;" parent="1" source="EWkVJWGxlFTpa1lQiUUY-2" target="EWkVJWGxlFTpa1lQiUUY-10" edge="1">
          <mxGeometry relative="1" as="geometry" />
        </mxCell>
        <mxCell id="EWkVJWGxlFTpa1lQiUUY-23" style="edgeStyle=orthogonalEdgeStyle;rounded=0;orthogonalLoop=1;jettySize=auto;html=1;exitX=0.5;exitY=1;exitDx=0;exitDy=0;entryX=0.5;entryY=0;entryDx=0;entryDy=0;" parent="1" source="EWkVJWGxlFTpa1lQiUUY-2" target="EWkVJWGxlFTpa1lQiUUY-22" edge="1">
          <mxGeometry relative="1" as="geometry" />
        </mxCell>
        <mxCell id="EWkVJWGxlFTpa1lQiUUY-2" value="Data object" style="rounded=0;whiteSpace=wrap;html=1;fillColor=#dae8fc;strokeColor=#6c8ebf;" parent="1" vertex="1">
          <mxGeometry x="380" y="230" width="180" height="50" as="geometry" />
        </mxCell>
        <mxCell id="EWkVJWGxlFTpa1lQiUUY-3" value="Frozen Final feature Set&lt;br&gt;(pkl)" style="rounded=0;whiteSpace=wrap;html=1;fillColor=#dae8fc;strokeColor=#6c8ebf;" parent="1" vertex="1">
          <mxGeometry x="290" y="480" width="100" height="80" as="geometry" />
        </mxCell>
        <mxCell id="EWkVJWGxlFTpa1lQiUUY-6" value="Frozen final raw data set&lt;br&gt;(pkl)" style="rounded=0;whiteSpace=wrap;html=1;fillColor=#dae8fc;strokeColor=#6c8ebf;" parent="1" vertex="1">
          <mxGeometry x="160" y="480" width="100" height="80" as="geometry" />
        </mxCell>
        <mxCell id="EWkVJWGxlFTpa1lQiUUY-8" value="Data documentation&lt;br&gt;(notebook)" style="rounded=0;whiteSpace=wrap;html=1;fillColor=#f5f5f5;strokeColor=#666666;fontColor=#333333;" parent="1" vertex="1">
          <mxGeometry x="420" y="480" width="100" height="80" as="geometry" />
        </mxCell>
        <mxCell id="EWkVJWGxlFTpa1lQiUUY-10" value="Feature distribution plots" style="rounded=0;whiteSpace=wrap;html=1;fillColor=#fff2cc;strokeColor=#d6b656;" parent="1" vertex="1">
          <mxGeometry x="550" y="480" width="100" height="80" as="geometry" />
        </mxCell>
        <mxCell id="EWkVJWGxlFTpa1lQiUUY-13" style="edgeStyle=orthogonalEdgeStyle;rounded=0;orthogonalLoop=1;jettySize=auto;html=1;exitX=0.5;exitY=1;exitDx=0;exitDy=0;entryX=0.5;entryY=0;entryDx=0;entryDy=0;" parent="1" source="EWkVJWGxlFTpa1lQiUUY-17" target="EWkVJWGxlFTpa1lQiUUY-18" edge="1">
          <mxGeometry relative="1" as="geometry" />
        </mxCell>
        <mxCell id="EWkVJWGxlFTpa1lQiUUY-14" style="edgeStyle=orthogonalEdgeStyle;rounded=0;orthogonalLoop=1;jettySize=auto;html=1;exitX=0.5;exitY=1;exitDx=0;exitDy=0;entryX=0.5;entryY=0;entryDx=0;entryDy=0;" parent="1" source="EWkVJWGxlFTpa1lQiUUY-17" target="EWkVJWGxlFTpa1lQiUUY-19" edge="1">
          <mxGeometry relative="1" as="geometry" />
        </mxCell>
        <mxCell id="EWkVJWGxlFTpa1lQiUUY-15" style="edgeStyle=orthogonalEdgeStyle;rounded=0;orthogonalLoop=1;jettySize=auto;html=1;exitX=0.5;exitY=1;exitDx=0;exitDy=0;entryX=0.5;entryY=0;entryDx=0;entryDy=0;" parent="1" source="EWkVJWGxlFTpa1lQiUUY-17" target="EWkVJWGxlFTpa1lQiUUY-20" edge="1">
          <mxGeometry relative="1" as="geometry" />
        </mxCell>
        <mxCell id="EWkVJWGxlFTpa1lQiUUY-16" style="edgeStyle=orthogonalEdgeStyle;rounded=0;orthogonalLoop=1;jettySize=auto;html=1;exitX=0.5;exitY=1;exitDx=0;exitDy=0;entryX=0.5;entryY=0;entryDx=0;entryDy=0;" parent="1" source="EWkVJWGxlFTpa1lQiUUY-17" target="EWkVJWGxlFTpa1lQiUUY-21" edge="1">
          <mxGeometry relative="1" as="geometry" />
        </mxCell>
        <mxCell id="EWkVJWGxlFTpa1lQiUUY-25" style="edgeStyle=orthogonalEdgeStyle;rounded=0;orthogonalLoop=1;jettySize=auto;html=1;exitX=0.5;exitY=1;exitDx=0;exitDy=0;entryX=0.5;entryY=0;entryDx=0;entryDy=0;" parent="1" source="EWkVJWGxlFTpa1lQiUUY-17" target="EWkVJWGxlFTpa1lQiUUY-24" edge="1">
          <mxGeometry relative="1" as="geometry" />
        </mxCell>
        <mxCell id="EWkVJWGxlFTpa1lQiUUY-17" value="Model Object" style="rounded=0;whiteSpace=wrap;html=1;fillColor=#dae8fc;strokeColor=#6c8ebf;" parent="1" vertex="1">
          <mxGeometry x="1120" y="230" width="180" height="50" as="geometry" />
        </mxCell>
        <mxCell id="EWkVJWGxlFTpa1lQiUUY-18" value="Model interpretation plots" style="rounded=0;whiteSpace=wrap;html=1;fillColor=#fff2cc;strokeColor=#d6b656;" parent="1" vertex="1">
          <mxGeometry x="1030" y="480" width="100" height="80" as="geometry" />
        </mxCell>
        <mxCell id="EWkVJWGxlFTpa1lQiUUY-19" value="Final model&lt;br&gt;(pkl)" style="rounded=0;whiteSpace=wrap;html=1;fillColor=#dae8fc;strokeColor=#6c8ebf;" parent="1" vertex="1">
          <mxGeometry x="900" y="480" width="100" height="80" as="geometry" />
        </mxCell>
        <mxCell id="EWkVJWGxlFTpa1lQiUUY-20" value="Model documentation (notebook)" style="rounded=0;whiteSpace=wrap;html=1;fillColor=#f5f5f5;strokeColor=#666666;fontColor=#333333;" parent="1" vertex="1">
          <mxGeometry x="1160" y="480" width="100" height="80" as="geometry" />
        </mxCell>
        <mxCell id="EWkVJWGxlFTpa1lQiUUY-21" value="Partial dependency&lt;br&gt;plots" style="rounded=0;whiteSpace=wrap;html=1;fillColor=#fff2cc;strokeColor=#d6b656;" parent="1" vertex="1">
          <mxGeometry x="1290" y="480" width="100" height="80" as="geometry" />
        </mxCell>
        <mxCell id="EWkVJWGxlFTpa1lQiUUY-22" value="Other statistical analyses" style="rounded=0;whiteSpace=wrap;html=1;fillColor=#fff2cc;strokeColor=#d6b656;" parent="1" vertex="1">
          <mxGeometry x="680" y="480" width="100" height="80" as="geometry" />
        </mxCell>
        <mxCell id="EWkVJWGxlFTpa1lQiUUY-24" value="Model&lt;br&gt;&amp;nbsp;test results" style="rounded=0;whiteSpace=wrap;html=1;fillColor=#fff2cc;strokeColor=#d6b656;" parent="1" vertex="1">
          <mxGeometry x="1420" y="480" width="100" height="80" as="geometry" />
        </mxCell>
      </root>
    </mxGraphModel>
  </diagram>
</mxfile>
